<svg id="Layer_1" data-name="Layer 1" xmlns="http://www.w3.org/2000/svg" width="342.98" height="114.43" viewBox="0 0 342.98 114.43">
  <defs>
    <style>
      .cls-1 {
        fill: #d78825;
      }

      .cls-2 {
        fill: #6d6e71;
      }
    </style>
  </defs>
  <title>r2018b</title>
  <g>
    <path class="cls-1" d="M70.41,84.57H45.55L26.7,55h-.21V84.57h-20V7.74H36.38c15.18,0,26.7,7.24,26.7,23.64,0,10.6-5.91,19.77-16.82,21.71ZM26.49,42.19h1.94c6.52,0,13.86-1.23,13.86-9.58S35,23,28.43,23H26.49Z"/>
    <path class="cls-2" d="M121.16,76.63v7.94H71.43l36-42.49c3.06-3.66,5.2-7.84,5.2-12.84,0-8.55-6.93-14.87-15.29-14.87C88,14.37,82,21.19,81.82,30.16H73.26C73.57,16.71,83.45,6.42,97,6.42c12.83,0,24.15,9.37,24.15,22.72a23.81,23.81,0,0,1-5.81,16.2L88.75,76.63Z"/>
    <path class="cls-2" d="M182.8,46.26c0,18.95-10,39.64-27.51,39.64s-27.51-20.69-27.51-39.64c0-15.79,8.05-39.84,27.51-39.84S182.8,30.47,182.8,46.26Zm-46.46.41c.2,10.8,4.79,31.28,18.95,31.28s18.75-20.48,19-31.28-4.48-32.3-19-32.3S136.13,35.77,136.34,46.67Z"/>
    <path class="cls-2" d="M186.47,15.69,191,7.74h16.82V84.57h-8.56V15.69Z"/>
    <path class="cls-2" d="M267.68,27.82c0,6.72-3.46,13.45-9.37,16.81,7.23,3.26,11.31,10.6,11.31,18.44,0,13.25-10.19,22.83-23.44,22.83s-23.43-9.58-23.43-22.83c0-7.84,4.07-15.18,11.31-18.44a19.44,19.44,0,0,1-9.38-16.81c0-12.33,9.48-21.4,21.5-21.4S267.68,15.49,267.68,27.82ZM231.31,63.18A14.88,14.88,0,1,0,246.18,48.4,14.74,14.74,0,0,0,231.31,63.18Zm1.52-35.57a13.35,13.35,0,1,0,13.35-13.24A13.42,13.42,0,0,0,232.83,27.61Z"/>
    <path class="cls-1" d="M279,0h18.55V37.4c4-4.59,10.19-6.83,16.2-6.83,15.49,0,26.19,12.84,26.19,27.82s-10.8,27.92-26.39,27.92c-6.12,0-12.43-2.35-15.8-7.54h-.2v5.8H279Zm17.94,58.49c0,6.62,4.38,11.72,11.92,11.72s11.92-5.1,11.92-11.72c0-6.42-4.38-11.82-11.92-11.82S296.93,52.07,296.93,58.49Z"/>
  </g>
</svg>
