<svg id="Layer_1" data-name="Layer 1" xmlns="http://www.w3.org/2000/svg" width="356.21" height="114.43" viewBox="0 0 356.21 114.43">
  <defs>
    <style>
      .cls-1 {
        fill: #d78825;
      }

      .cls-2 {
        fill: #6d6e71;
      }
    </style>
  </defs>
  <title>r2020a</title>
  <g>
    <path class="cls-1" d="M70.41,84.58H45.55L26.7,55h-.21V84.58h-20V7.75H36.38c15.18,0,26.7,7.23,26.7,23.64,0,10.59-5.91,19.76-16.82,21.7ZM26.49,42.19h1.94c6.52,0,13.86-1.23,13.86-9.58S35,23,28.43,23H26.49Z"/>
    <path class="cls-2" d="M119.8,76.63v8H70.08l36-42.49c3-3.67,5.19-7.85,5.19-12.84,0-8.56-6.93-14.88-15.28-14.88-9.27,0-15.29,6.83-15.49,15.79H71.91C72.22,16.71,82.1,6.42,95.65,6.42c12.84,0,24.15,9.38,24.15,22.72A23.81,23.81,0,0,1,114,45.35L87.4,76.63Z"/>
    <path class="cls-2" d="M179.21,46.26c0,19-10,39.64-27.51,39.64s-27.52-20.68-27.52-39.64c0-15.79,8-39.84,27.52-39.84S179.21,30.47,179.21,46.26Zm-46.47.41C133,57.47,137.53,78,151.7,78s18.75-20.48,19-31.28-4.48-32.3-19-32.3S132.54,35.77,132.74,46.67Z"/>
    <path class="cls-2" d="M229.87,76.63v8H180.15l36-42.49c3-3.67,5.19-7.85,5.19-12.84,0-8.56-6.92-14.88-15.28-14.88-9.27,0-15.28,6.83-15.49,15.79H182c.31-13.45,10.19-23.74,23.74-23.74,12.84,0,24.15,9.38,24.15,22.72a23.85,23.85,0,0,1-5.8,16.21l-26.6,31.28Z"/>
    <path class="cls-2" d="M289.28,46.26c0,19-10,39.64-27.51,39.64s-27.51-20.68-27.51-39.64c0-15.79,8.05-39.84,27.51-39.84S289.28,30.47,289.28,46.26Zm-46.46.41C243,57.47,247.6,78,261.77,78s18.75-20.48,19-31.28-4.48-32.3-19-32.3S242.61,35.77,242.82,46.67Z"/>
    <path class="cls-1" d="M353,84.58H334.44V78.77h-.2c-3.26,5.2-9.68,7.54-15.79,7.54-15.49,0-26.4-12.94-26.4-27.92s10.7-27.82,26.19-27.82c6,0,12.33,2.24,16.2,6.83V32.3H353ZM311.21,58.49c0,6.62,4.38,11.72,11.92,11.72s11.92-5.1,11.92-11.72c0-6.42-4.38-11.82-11.92-11.82S311.21,52.07,311.21,58.49Z"/>
  </g>
</svg>
