<?xml version="1.0" encoding="utf-8"?>
<!-- Generator: Adobe Illustrator 22.0.1, SVG Export Plug-In . SVG Version: 6.00 Build 0)  -->
<!DOCTYPE svg PUBLIC "-//W3C//DTD SVG 1.1//EN" "http://www.w3.org/Graphics/SVG/1.1/DTD/svg11.dtd" [
	<!ENTITY st0 "fill:#FFFFFF;">
]>
<svg version="1.1" id="Layer_1" xmlns="http://www.w3.org/2000/svg" xmlns:xlink="http://www.w3.org/1999/xlink" x="0px" y="0px"
	 width="226.6px" height="44.1px" viewBox="0 0 226.6 44.1" style="enable-background:new 0 0 226.6 44.1;" xml:space="preserve">
<g>
	<g>
		<g>
			<path style="&st0;" d="M12,0l16.7,35.2L45.3,0h10.4v0.9c-5.9,0.8-6.3,1.4-6.1,8.9l0.6,24.4c0.2,7.5,0.4,8.1,6.4,8.9v0.9H38.9
				v-0.9c5.7-0.8,5.9-1.4,5.8-8.9l-0.3-28h-0.3L27.1,43.3h-0.7L9.9,7.4H9.8L9.2,26.1c-0.3,7.1,0,10.8,0.3,12.9
				c0.4,2.5,2,3.5,6.5,4.1v0.9H0v-0.9c3.8-0.6,5.2-1.6,5.8-4.1c0.5-2.1,1.1-6.2,1.4-12.9l0.7-14.3c0.4-9,0-10.1-6.4-10.9V0H12z"/>
			<path style="&st0;" d="M73.4,12.8h0.1l5.6,14.8H67.8L73.4,12.8z M68.5,44.1v-0.8L67.3,43c-3.1-0.7-3.7-1.4-2.8-4.9
				c0.6-2.3,2-6.9,2.7-8.7h12.5c1.7,4.5,3.4,9.1,3.8,10.5c0.5,1.8,0.3,2.4-1.8,2.9l-1.9,0.5v0.8h13.9v-0.8c-3.6-0.9-4.4-1.3-6.2-6.1
				c-2.3-6-4.9-13.3-7.8-20.7L75.5,5.4l-0.8,0.2L62.8,36.3c-2.2,5.7-2.9,6.1-6.7,7v0.8H68.5z"/>
			<path style="&st0;" d="M115.8,6.2c1.5,0,2-0.3,3-1.5h0.6c0.1,2.4,0.3,6.7,0.6,10.1l-0.9,0.2c-1-2.8-1.6-4.4-2.5-5.5
				c-0.9-1.2-2.7-2-6.3-2h-4.3v28.2c0,6.3,0.5,7,6.2,7.6v0.8H95.5v-0.8c5.5-0.6,5.9-1.3,5.9-7.6V7.5h-3c-5.2,0-6.6,1.2-7.5,2.3
				c-0.7,1-1.6,2.6-2.4,5.2h-0.9c0.2-3.6,0.6-7.3,0.7-10.2h0.6c0.9,1.3,1.7,1.5,3.3,1.5H115.8z"/>
			<path style="&st0;" d="M131.5,36.4c0,3.3,0.3,4.7,1.3,5.5c1.2,0.9,3.1,0.9,5.8,0.9c2.8,0,5.4-0.8,6.8-2.3c0.9-1.1,2-3.1,3.3-5.8
				l0.9,0.2c-0.3,1.6-1.6,7.6-2,9.1h-26v-0.8c4.9-0.6,5.4-1.3,5.4-7.6v-21c0-6.3-0.5-7-5.4-7.6V6.2H137V7c-5,0.6-5.5,1.3-5.5,7.6
				V36.4z"/>
			<path style="&st0;" d="M166.3,12.8h0.1l5.6,14.8h-11.2L166.3,12.8z M161.5,44.1v-0.8l-1.2-0.3c-3.1-0.7-3.7-1.4-2.8-4.9
				c0.6-2.3,2-6.9,2.7-8.7h12.5c1.7,4.5,3.4,9.1,3.8,10.5c0.5,1.8,0.4,2.4-1.7,2.9l-1.9,0.5v0.8h13.9v-0.8c-3.6-0.9-4.4-1.3-6.2-6.1
				c-2.3-6-4.9-13.3-7.7-20.7l-4.3-11.1l-0.8,0.2l-11.9,30.7c-2.2,5.7-2.9,6.1-6.7,7v0.8H161.5z"/>
			<path style="&st0;" d="M198.1,9.3c0-1.2,0.2-1.4,0.5-1.6c0.5-0.2,1.3-0.3,3.2-0.3c6.9,0,8.3,4.4,8.3,7.9c0,5-2.8,7.6-8.4,7.6
				h-3.7V9.3z M188.5,6.2v0.8c4.6,0.6,5,1.3,5,7.6v21c0,6.3-0.5,7-5.4,7.6v0.8h13c4.5,0,8.2-0.6,11.1-2.2c3.4-1.9,5.4-4.8,5.4-9
				c0-5.9-4.8-9-10.2-9.8V23c2.8-0.7,7.7-3.2,7.7-8.3c0-2.9-1.1-5-3-6.4c-1.9-1.3-4.6-2-8.5-2H188.5z M201.5,24.1
				c6.1,0,10.7,3.1,10.7,9.6c0,6.4-4.1,9.2-9.1,9.2c-4.3,0-5-1.1-5-5.7v-13H201.5z"/>
		</g>
	</g>
	<g>
		<path style="&st0;" d="M217.5,11.5c0-2.5,2-4.5,4.5-4.5c2.5,0,4.5,2,4.5,4.5c0,2.5-2,4.5-4.5,4.5C219.5,16,217.5,14,217.5,11.5z
			 M225.9,11.5c0-2.1-1.8-3.8-3.8-3.8c-2.1,0-3.8,1.7-3.8,3.8c0,2.1,1.8,3.8,3.8,3.8C224.1,15.3,225.9,13.6,225.9,11.5z M224.2,14
			h-0.8l-1.5-2.3h-0.8V14h-0.7V9h2.2c0.9,0,1.8,0.2,1.8,1.3c0,1-0.7,1.3-1.6,1.4L224.2,14z M221.9,11c0.6,0,1.7,0.1,1.7-0.7
			c0-0.5-0.7-0.6-1.2-0.6h-1.3V11H221.9z"/>
	</g>
</g>
</svg>
