<?xml version="1.0" encoding="utf-8"?>
<!-- Generator: Adobe Illustrator 23.0.1, SVG Export Plug-In . SVG Version: 6.00 Build 0)  -->
<svg version="1.1" id="Layer_1" xmlns="http://www.w3.org/2000/svg" xmlns:xlink="http://www.w3.org/1999/xlink" x="0px" y="0px"
	 viewBox="0 0 292.9 45" style="enable-background:new 0 0 292.9 45;" xml:space="preserve">
<style type="text/css">
	.st0{fill:#FFFFFF;}
</style>
<g>
	<g>
		<g>
			<path class="st0" d="M283.8,10.5c0-2.5,2-4.5,4.5-4.5c2.5,0,4.5,2,4.5,4.5c0,2.5-2,4.5-4.5,4.5C285.8,15,283.8,13,283.8,10.5z
				 M292.2,10.5c0-2.1-1.8-3.8-3.9-3.8c-2.1,0-3.8,1.7-3.8,3.8c0,2.1,1.8,3.8,3.8,3.8C290.5,14.3,292.2,12.6,292.2,10.5z M290.5,13
				h-0.8l-1.5-2.3h-0.8V13h-0.7V8h2.2c0.9,0,1.8,0.2,1.8,1.3c0,1-0.7,1.3-1.6,1.4L290.5,13z M288.2,10c0.6,0,1.7,0.1,1.7-0.7
				c0-0.5-0.7-0.6-1.2-0.6h-1.3V10H288.2z"/>
		</g>
	</g>
	<g>
		<g>
			<g>
				<g>
					<g>
						<path class="st0" d="M16.6,0c4.7,0,8.6,0.8,11.3,2.8c2.6,2,4.3,5.2,4.3,9.5c0,8.8-6.6,13-13.1,13.8c-1,0.1-2.2,0.1-2.9,0
							l-5-1.4v11.4c0,5.7,0.5,6.1,6.3,6.6V44H0v-1.3c5.2-0.5,5.8-1,5.8-6.7V8c0-6-0.5-6.3-5.4-6.6V0H16.6z M11.3,23.1
							c0.9,0.3,2.7,0.7,4.8,0.7c4.3,0,9.8-2.3,9.8-11.3c0-7.5-4.5-10.8-10.2-10.8c-1.8,0-3.3,0.3-3.7,0.7c-0.5,0.5-0.7,1.4-0.7,3.5
							V23.1z"/>
						<path class="st0" d="M72.8,24.7c0,12.4-8.7,20.2-19.3,20.2c-10.5,0-18.7-8.3-18.7-19.3c0-10.4,7.3-20.2,19.4-20.2
							C64,5.4,72.8,13.2,72.8,24.7z M40.5,24c0,11.2,5.9,19.2,14.2,19.2c6.6,0,12.3-5.7,12.3-16.9c0-12.4-6.2-19.2-14.1-19.2
							C46.4,7.1,40.5,12.9,40.5,24z"/>
						<path class="st0" d="M101.6,35.2c-0.3,1.6-1.5,6.9-2,8.8H74v-1.2c4.7-0.4,5.2-0.8,5.2-5.8V13.2c0-5.1-0.3-5.3-4.9-5.7V6.3
							h14.4v1.2c-4.3,0.4-4.8,0.6-4.8,5.7v23.5c0,3.3,0.2,4.4,1.3,5.1c1.1,0.6,3.1,0.8,5.6,0.8c3.5,0,5.4-0.3,6.7-1.9
							c1-1.2,2-3,2.9-5.7L101.6,35.2z"/>
						<path class="st0" d="M131.9,7.5c-4,0.5-4.5,1.1-6.4,4.1c-3,4.6-4.9,8.2-7.7,13.4c-0.9,1.7-1,2.4-1,3.9V37c0,5,0.5,5.5,5.6,5.8
							V44h-15.7v-1.2c4.9-0.3,5.4-0.8,5.4-5.8V29c0-1.2-0.2-1.7-1.2-3.5c-1.7-3.2-3.8-7.1-7.2-13c-2.4-4.2-2.8-4.8-6.3-5.1V6.3h13.4
							v1.2c-4,0.5-4,1.2-3,3c2.6,5,5.5,10.2,8,14.6c2.2-3.8,5.5-10.1,7.1-13.7c1.4-3,1-3.4-3.3-3.9V6.3h12.2V7.5z"/>
						<path class="st0" d="M174.1,6.3c4.1,0,7.4,0.7,9.6,2.4c2.3,1.7,3.7,4.4,3.7,8.1c0,7.6-5.7,11.2-11.2,11.9
							c-0.9,0.1-1.9,0.1-2.4,0l-4.3-1.2v9.8c0,4.9,0.5,5.2,5.4,5.6V44h-15.1v-1.1c4.5-0.4,4.9-0.9,4.9-5.8v-24
							c0-5.1-0.4-5.4-4.6-5.7V6.3H174.1z M169.5,26.1c0.8,0.3,2.3,0.6,4.1,0.6c3.7,0,8.4-2,8.4-9.7c0-6.5-3.8-9.2-8.8-9.2
							c-1.6,0-2.8,0.3-3.1,0.6c-0.5,0.4-0.6,1.2-0.6,3V26.1z"/>
						<path class="st0" d="M205.4,44v-1.2c3.5-0.4,4.2-0.9,3.4-3.3c-0.8-2.4-2-5.8-3.4-9.9h-12.2c-1,3.1-2,5.8-2.8,8.4
							c-1.3,3.8-0.8,4.4,3.7,4.8V44h-12.1v-1.2c3.6-0.4,4.4-0.9,6.4-6l12.1-30.9l1.3-0.5c3.7,10.2,7.5,21,11.3,31.4
							c1.8,5.1,2.6,5.6,6.3,6V44H205.4z M199.7,12.7h-0.2c-1.9,5-3.8,10.2-5.5,14.9h10.8L199.7,12.7z"/>
						<path class="st0" d="M251.4,34.7c-0.8,2.5-2.2,6.6-3.2,8.7c-1.6,0.3-6.3,1.5-10.4,1.5c-14.5,0-20.7-10-20.7-19.3
							c0-12.2,9.2-20.2,22.2-20.2c4.6,0,8.5,1.2,10.1,1.6c0.5,3.3,0.8,5.6,1.1,8.3l-1.2,0.4c-1.5-6.2-5.3-8.6-11.5-8.6
							c-9.9,0-15.1,8.4-15.1,17.4c0,10.9,6.1,18.8,15.3,18.8c6.2,0,9.4-3.6,12.1-8.9L251.4,34.7z"/>
						<path class="st0" d="M282.4,35.2c-0.4,1.9-1.5,6.9-2,8.8h-27.3v-1.2c5.2-0.4,5.6-0.9,5.6-5.8V13.4c0-5.4-0.5-5.6-4.8-6V6.3
							h25.2c0,1.6,0.2,5.5,0.5,8l-1.3,0.2c-0.5-2.4-1.1-3.7-1.9-4.8c-0.9-1.4-2.5-1.8-7-1.8h-4.1c-1.7,0-1.9,0.2-1.9,1.9v13.9h5.6
							c5.3,0,5.6-0.6,6.3-4.4h1.2V30h-1.2c-0.7-4-1.1-4.5-6.2-4.5h-5.7V37c0,2.7,0.4,4,1.3,4.7c1.1,0.8,3.1,0.8,6,0.8
							c4.9,0,6.3-0.5,7.6-2.1c1-1.3,2-3.3,2.8-5.4L282.4,35.2z"/>
					</g>
				</g>
			</g>
			<path class="st0" d="M152.6,14.8c-1-3.8-2.9-7.7-7.9-7.7c-4.4,0-6.5,3.2-6.5,6.6c0,4.4,2.9,6.4,7.5,8.8c4.5,2.4,9.8,5.1,9.8,11.6
				c0,5.9-5,10.8-12.6,10.8c-2.4,0-4.2-0.5-5.6-0.9c-1.5-0.5-2.4-0.9-2.9-1.2c-0.5-1.1-1.3-6.7-1.5-8.9l1.2-0.4
				c0.9,3.7,3.7,9.6,9.8,9.6c4.5,0,7-2.9,7-7.2c0-4.4-3.2-6.5-7.5-8.8c-3.5-2-9.5-4.9-9.5-11.5c0-5.5,4.4-10.2,11.8-10.2
				c3,0,5.3,0.8,7.2,1.3c0.2,2.1,0.5,4.4,1,7.8L152.6,14.8z"/>
		</g>
	</g>
</g>
</svg>
