<?xml version="1.0" encoding="utf-8"?>
<!-- Generator: Adobe Illustrator 24.2.3, SVG Export Plug-In . SVG Version: 6.00 Build 0)  -->
<svg version="1.1" id="Layer_1" xmlns="http://www.w3.org/2000/svg" xmlns:xlink="http://www.w3.org/1999/xlink" x="0px" y="0px"
	 width="356.2px" height="114.4px" viewBox="0 0 356.2 114.4" style="enable-background:new 0 0 356.2 114.4;" xml:space="preserve"
	>
<style type="text/css">
	.st0{fill:#D78825;}
	.st1{fill:#6D6E71;}
</style>
<g>
	<path class="st0" d="M70.4,84.5H45.5L26.7,55h-0.2v29.5h-20V7.7h29.9c15.2,0,26.7,7.2,26.7,23.6c0,10.6-5.9,19.8-16.8,21.7
		L70.4,84.5z M26.5,42.2h1.9c6.5,0,13.9-1.2,13.9-9.6c0-8.4-7.3-9.6-13.9-9.6h-1.9V42.2z"/>
	<path class="st1" d="M121.2,76.6v7.9H71.4l36-42.5c3.1-3.7,5.2-7.8,5.2-12.8c0-8.6-6.9-14.9-15.3-14.9c-9.3,0-15.3,6.8-15.5,15.8
		h-8.6C73.6,16.7,83.4,6.4,97,6.4c12.8,0,24.1,9.4,24.1,22.7c0,6.2-1.8,11.6-5.8,16.2L88.7,76.6H121.2z"/>
	<path class="st1" d="M182.8,46.2c0,19-10,39.6-27.5,39.6s-27.5-20.7-27.5-39.6c0-15.8,8-39.8,27.5-39.8S182.8,30.4,182.8,46.2z
		 M136.3,46.6c0.2,10.8,4.8,31.3,19,31.3s18.7-20.5,19-31.3c0.2-10.9-4.5-32.3-19-32.3S136.1,35.7,136.3,46.6z"/>
	<path class="st1" d="M234.5,76.6v7.9h-49.7l36-42.5c3.1-3.7,5.2-7.8,5.2-12.8c0-8.6-6.9-14.9-15.3-14.9c-9.3,0-15.3,6.8-15.5,15.8
		h-8.6c0.3-13.5,10.2-23.7,23.7-23.7c12.8,0,24.2,9.4,24.2,22.7c0,6.2-1.8,11.6-5.8,16.2l-26.6,31.3H234.5z"/>
	<path class="st1" d="M249.2,15.7l4.5-7.9h16.8v76.8H262V15.7H249.2z"/>
	<path class="st0" d="M291.2,0h18.5v37.4c4-4.6,10.2-6.8,16.2-6.8c15.5,0,26.2,12.8,26.2,27.8c0,15.1-10.8,27.9-26.4,27.9
		c-6.1,0-12.4-2.3-15.8-7.5h-0.2v5.8h-18.5V0z M309.2,58.5c0,6.6,4.4,11.7,11.9,11.7c7.5,0,11.9-5.1,11.9-11.7
		c0-6.4-4.4-11.8-11.9-11.8C313.5,46.6,309.2,52,309.2,58.5z"/>
</g>
</svg>
