<?xml version="1.0" encoding="utf-8"?>
<!-- Generator: Adobe Illustrator 22.0.1, SVG Export Plug-In . SVG Version: 6.00 Build 0)  -->
<!DOCTYPE svg PUBLIC "-//W3C//DTD SVG 1.1//EN" "http://www.w3.org/Graphics/SVG/1.1/DTD/svg11.dtd" [
	<!ENTITY st0 "fill:#FFFFFF;">
]>
<svg version="1.1" id="Layer_1" xmlns="http://www.w3.org/2000/svg" xmlns:xlink="http://www.w3.org/1999/xlink" x="0px" y="0px"
	 width="263.6px" height="44.6px" viewBox="0 0 263.6 44.6" style="enable-background:new 0 0 263.6 44.6;" xml:space="preserve">
<g>
	<g>
		<g>
			<path style="&st0;" d="M1,32c1.2,3,4.9,10.8,12.1,10.8c5,0,8.2-3,8.2-8.4c0-6.6-5.3-8.7-8.9-10.6C9.9,22.6,1.6,19.5,1.6,12
				C1.6,5.6,6.4,0,15,0c3.8,0,5.9,1,8,1.5c0.3,2.3,0.6,4.9,1.2,8.9l-1,0.2c-1.5-4-3.4-9.1-9.6-9.1C8.5,1.6,6.2,5,6.2,9.1
				c0,4.9,3.7,7.2,8.7,9.5c4.9,2.2,11.2,5,11.2,12.8c0,7.3-6.2,13.1-14.4,13.2C9.2,44.5,7,44,5.4,43.5c-1.6-0.5-2.7-1-3.5-1.4
				c-0.6-1.7-1.3-6.4-2-9.8L1,32z"/>
			<path style="&st0;" d="M36.1,35.2c0,6.3,0.5,7,5.2,7.6v0.8H26.2v-0.8c4.8-0.6,5.2-1.3,5.2-7.6V14.4c0-6.3-0.5-7-5.2-7.6V6h15.1
				v0.8c-4.8,0.6-5.2,1.3-5.2,7.6V35.2z"/>
			<path style="&st0;" d="M52.8,6L67.1,36L81.3,6h8.9v0.8c-5,0.7-5.4,1.2-5.2,7.6l0.5,20.9c0.2,6.4,0.3,6.9,5.5,7.6v0.8H75.8v-0.8
				c4.9-0.7,5-1.2,5-7.6l-0.2-23.9h-0.2L65.7,43H65L51,12.3h-0.1l-0.5,16c-0.2,6,0,9.2,0.3,11c0.3,2.1,1.7,3,5.5,3.5v0.8H42.6v-0.8
				c3.2-0.5,4.4-1.4,5-3.5c0.5-1.8,0.9-5.3,1.2-11l0.6-12.2c0.3-7.7,0-8.6-5.5-9.3V6H52.8z"/>
			<path style="&st0;" d="M107.2,6v0.8c-4.6,0.6-5.1,1.3-5.1,7.6v12.3c0,4.9,0.6,8.6,2.4,11.3c1.8,2.6,4.5,4,8.6,4
				c3.8,0,6.7-1.7,8.6-4.5c1.9-2.9,2.6-8,2.6-12.9v-3.2c0-6.1-0.3-9.2-0.6-11c-0.4-2-2-3.1-5.8-3.5V6h14v0.8
				c-3.2,0.4-4.7,1.5-5.1,3.5c-0.3,1.8-0.9,4.9-0.9,11.1v3.9c0,6.7-1,11.5-4.4,15.1c-2.5,2.7-6.7,4.2-10.3,4.2c-3,0-6.6-0.7-9.3-2.9
				c-3-2.5-4.4-6.4-4.4-13.1V14.4c0-6.3-0.5-7-5.3-7.6V6H107.2z"/>
			<path style="&st0;" d="M143.2,36c0,3.3,0.3,4.7,1.3,5.4c1.2,0.9,3.1,0.9,5.7,0.9c2.8,0,5.4-0.8,6.7-2.3c0.9-1.1,2-3.1,3.3-5.7
				l0.9,0.2c-0.3,1.6-1.6,7.5-2,9.1h-25.9v-0.8c4.9-0.6,5.3-1.3,5.3-7.6V14.4c0-6.3-0.5-7-5.3-7.6V6h15.4v0.8
				c-5,0.6-5.5,1.3-5.5,7.6V36z"/>
			<path style="&st0;" d="M170.8,35.2c0,6.3,0.5,7,5.2,7.6v0.8h-15.1v-0.8c4.8-0.6,5.2-1.3,5.2-7.6V14.4c0-6.3-0.5-7-5.2-7.6V6H176
				v0.8c-4.8,0.6-5.2,1.3-5.2,7.6V35.2z"/>
			<path style="&st0;" d="M212.2,44.1h-0.9l-25.9-31.5h-0.1v15.7c0,6.1,0.4,9.2,0.8,11c0.4,2,2,3.1,5.8,3.5v0.8h-14v-0.8
				c3.2-0.4,4.7-1.5,5.1-3.5c0.3-1.8,0.8-4.9,0.8-11V15.8c0-4.9-0.1-5.3-1.1-6.6c-1.1-1.3-2.7-2-5.2-2.5V6h8.4l24.7,29.7h0.1V21.3
				c0-6.1-0.4-9.2-0.8-11c-0.4-2-2-3.1-5.8-3.5V6h14v0.8c-3.2,0.4-4.7,1.5-5.1,3.5c-0.3,1.8-0.8,4.9-0.8,11V44.1z"/>
			<path style="&st0;" d="M224.3,14.4c0-6.3-0.5-7-5.3-7.6V6h14.8v0.8c-4.6,0.6-5.1,1.3-5.1,7.6v10c2.8-2.5,11.2-11,13.9-14.5
				c0.9-1.2,1.2-2-0.6-2.4l-2.7-0.6V6h13.9v0.8c-3.6,0.6-4.9,1.1-8.7,4.2c-2.6,2-7.1,6.4-11.7,11.1c5.3,6.3,11.7,13.3,14.3,15.9
				c3.6,3.8,4.2,4.4,7,4.8v0.8h-8.4c-2.7-3.1-13.2-15.2-17-19.2v10.8c0,6.3,0.5,7,5.4,7.6v0.8h-14.8v-0.8c4.6-0.6,5-1.3,5-7.6V14.4z
				"/>
		</g>
	</g>
	<g>
		<path style="&st0;" d="M254.5,11.1c0-2.5,2-4.5,4.5-4.5c2.5,0,4.5,2,4.5,4.5c0,2.5-2,4.5-4.5,4.5
			C256.5,15.6,254.5,13.6,254.5,11.1z M262.9,11.1c0-2.1-1.8-3.8-3.9-3.8c-2.1,0-3.8,1.7-3.8,3.8c0,2.1,1.8,3.8,3.8,3.8
			C261.1,14.9,262.9,13.2,262.9,11.1z M261.2,13.5h-0.8l-1.5-2.3h-0.8v2.3h-0.7v-5h2.2c0.9,0,1.8,0.2,1.8,1.3c0,1-0.7,1.3-1.6,1.4
			L261.2,13.5z M258.9,10.5c0.6,0,1.7,0.1,1.7-0.7c0-0.5-0.7-0.6-1.2-0.6h-1.3v1.3H258.9z"/>
	</g>
</g>
</svg>
