<?xml version="1.0" encoding="utf-8"?>
<!-- Generator: Adobe Illustrator 21.0.2, SVG Export Plug-In . SVG Version: 6.00 Build 0)  -->
<svg version="1.1" id="svg-icon" xmlns="http://www.w3.org/2000/svg" xmlns:xlink="http://www.w3.org/1999/xlink" x="0px" y="0px"
	 width="102" height="102" viewBox="0 0 136 136" style="enable-background:new 0 0 136 136;" xml:space="preserve">
<style type="text/css">
.icon-shape{fill:#FFFFFF;}
</style>
<g id="svg-icon">
	<path class="icon-shape" d="M115.7,34.3c-0.1-0.8-1.2-1.1-1.8-0.5l-8.1,8.1L97,39l-2.9-8.8l8.1-8.1c0.6-0.6,0.3-1.6-0.5-1.8
	c-5.2-1-10.7,0.5-14.7,4.5c-4.4,4.4-5.8,10.8-4,16.5L45.3,78.9c-5.7-1.7-12.1-0.4-16.5,4c-4,4-5.4,9.5-4.5,14.7
	c0.1,0.8,1.2,1.1,1.8,0.5l8.1-8.1L43,93l2.9,8.8l-8.1,8.1c-0.6,0.6-0.3,1.6,0.5,1.8c5.2,1,10.7-0.5,14.7-4.5
	c4.4-4.4,5.8-10.8,4-16.5l37.6-37.6c5.7,1.7,12.1,0.4,16.5-4C115.2,45.1,116.7,39.6,115.7,34.3z M83.4,55.6L59.4,79.5
	c-0.4,0.4-0.9,0.6-1.5,0.6s-1.1-0.2-1.5-0.6c-0.8-0.8-0.8-2.1,0-2.9l23.9-23.9c0.8-0.8,2.1-0.8,2.9,0S84.2,54.8,83.4,55.6z"/>
</g>
</svg>